<?xml version='1.0' encoding='ascii'?>
<svg xmlns="http://www.w3.org/2000/svg" version="1.1" width="1080" height="1080">
    <g id="ViewLayer_LineSet" xmlns:inkscape="http://www.inkscape.org/namespaces/inkscape" inkscape:groupmode="lineset" inkscape:label="ViewLayer_LineSet">
        <g xmlns:inkscape="http://www.inkscape.org/namespaces/inkscape" inkscape:groupmode="layer" id="strokes" inkscape:label="strokes">
            <path fill="none" stroke-width="3.0" stroke-linecap="butt" stroke-opacity="1.0" stroke="rgb(0, 0, 0)" stroke-linejoin="round" d=" M 828.038, 840.306 835.391, 833.528 838.379, 830.773 844.927, 823.214 847.621, 820.105 853.288, 811.866 855.646, 808.437 860.369, 799.623 862.355, 795.916 866.081, 786.636 867.662, 782.699 870.352, 773.067 871.501, 768.951 873.126, 759.084 873.824, 754.847 874.368, 744.862 874.602, 740.563 874.602, 730.563 874.602, 720.563 874.602, 710.563 874.602, 700.563 874.602, 690.563 874.602, 680.563 874.602, 670.563 874.602, 660.563 874.602, 650.563 874.602, 640.563 874.602, 630.563 874.602, 620.563 874.602, 610.563 874.602, 600.563 874.602, 590.563 874.602, 580.563 874.602, 570.563 874.602, 560.563 874.602, 550.563 874.602, 539.021 874.602, 529.021 874.602, 524.771 874.602, 514.771 874.602, 504.771 874.602, 494.771 874.602, 484.771 874.602, 474.771 874.602, 464.771 874.602, 455.554 874.602, 445.554 874.602, 435.554 874.602, 425.554 874.602, 415.554 874.602, 409.136 874.602, 399.136 874.602, 389.136 874.602, 379.136 874.602, 369.136 874.602, 359.136 874.602, 349.136 874.602, 339.136 874.602, 329.136 874.602, 327.223 874.062, 317.238 873.824, 312.854 872.208, 302.986 871.501, 298.667 868.826, 289.031 867.662, 284.838 863.955, 275.551 862.355, 271.542 857.654, 262.716 855.646, 258.947 850.002, 250.692 847.621, 247.210 841.095, 239.633 838.379, 236.479 831.047, 229.680 828.038, 226.890 819.985, 220.961 816.727, 218.562 808.053, 213.587 804.589, 211.601 795.402, 207.652 791.776, 206.094 782.195, 203.229 778.449, 202.110 768.601, 200.373 764.777, 199.699 754.793, 199.117 750.930, 198.892 740.930, 198.892 730.930, 198.892 720.930, 198.892 710.930, 198.892 700.930, 198.892 690.930, 198.892 680.930, 198.892 670.930, 198.892 660.930, 198.892 659.874, 198.892 649.874, 198.892 648.441, 198.892 638.441, 198.892 634.642, 198.892 624.642, 198.892 622.026, 198.892 615.718, 198.892 609.410, 198.892 599.410, 198.892 589.410, 198.892 579.410, 198.892 570.375, 198.892 560.375, 198.892 558.945, 198.892 548.945, 198.892 538.945, 198.892 528.945, 198.892 518.945, 198.892 508.945, 198.892 498.945, 198.892 488.945, 198.892 478.945, 198.892 473.596, 198.892 463.596, 198.892 453.596, 198.892 443.596, 198.892 433.596, 198.892 423.596, 198.892 420.761, 198.892 410.761, 198.892 400.761, 198.892 390.761, 198.892 380.761, 198.892 370.761, 198.892 360.761, 198.892 350.761, 198.892 340.761, 198.892 332.702, 198.892 322.718, 199.457 318.444, 199.699 308.587, 201.387 304.365, 202.110 294.761, 204.898 290.642, 206.094 281.414, 209.946 277.448, 211.601 268.712, 216.467 264.950, 218.562 256.815, 224.378 253.303, 226.890 245.872, 233.582 242.654, 236.479 236.020, 243.961 233.138, 247.210 227.381, 255.387 224.875, 258.947 220.066, 267.715 217.967, 271.542 214.165, 280.791 212.502, 284.838 209.753, 294.453 208.548, 298.667 206.886, 308.528 206.156, 312.854 205.600, 322.839 205.355, 327.223 205.355, 337.223 205.355, 347.223 205.355, 357.223 205.355, 367.223 205.355, 377.223 205.355, 387.223 205.355, 397.223 205.355, 407.223 205.355, 409.136 205.355, 419.136 205.355, 429.136 205.355, 439.136 205.355, 449.136 205.355, 455.554 205.355, 465.554 205.355, 475.554 205.355, 485.554 205.355, 495.554 205.355, 505.554 205.355, 515.554 205.355, 524.771 205.355, 534.771 205.355, 539.021 205.355, 549.021 205.355, 559.021 205.355, 569.021 205.355, 579.021 205.355, 589.021 205.355, 599.021 205.355, 609.021 205.355, 619.021 205.355, 629.021 205.355, 639.021 205.355, 649.021 205.355, 659.021 205.355, 669.021 205.355, 679.021 205.355, 689.021 205.355, 699.021 205.355, 709.021 205.355, 719.021 205.355, 729.021 205.355, 740.563 205.915, 750.547 206.156, 754.847 207.828, 764.706 208.548, 768.951 211.312, 778.562 212.502, 782.699 216.323, 791.940 217.967, 795.916 222.797, 804.672 224.875, 808.437 230.654, 816.598 233.138, 820.105 239.795, 827.567 242.654, 830.773 250.105, 837.443 253.303, 840.306 261.453, 846.099 264.950, 848.584 273.698, 853.428 277.448, 855.505 286.685, 859.337 290.642, 860.979 300.250, 863.752 304.365, 864.940 314.223, 866.618 318.444, 867.336 328.428, 867.898 332.702, 868.139 342.702, 868.139 352.702, 868.139 362.702, 868.139 372.702, 868.139 382.702, 868.139 392.702, 868.139 402.702, 868.139 412.702, 868.139 420.761, 868.139 430.761, 868.139 440.761, 868.139 450.761, 868.139 460.761, 868.139 470.761, 868.139 473.596, 868.139 483.596, 868.139 493.596, 868.139 503.596, 868.139 513.596, 868.139 523.596, 868.139 533.596, 868.139 543.596, 868.139 553.596, 868.139 558.945, 868.139 568.945, 868.139 578.945, 868.139 588.945, 868.139 598.945, 868.139 608.945, 868.139 618.945, 868.139 628.945, 868.139 638.945, 868.139 648.945, 868.139 659.874, 868.139 669.874, 868.139 679.874, 868.139 689.874, 868.139 699.874, 868.139 709.874, 868.139 719.874, 868.139 729.874, 868.139 739.874, 868.139 749.874, 868.139 750.930, 868.139 760.913, 867.560 764.777, 867.336 774.626, 865.610 778.449, 864.940 788.035, 862.091 791.776, 860.979 800.972, 857.050 804.589, 855.505 813.276, 850.552 816.727, 848.584 824.797, 842.678 828.038, 840.306 " />
            <path fill="none" stroke-width="3.0" stroke-linecap="butt" stroke-opacity="1.0" stroke="rgb(0, 0, 0)" stroke-linejoin="round" d=" M 558.945, 493.300 563.376, 487.882 566.028, 484.447 568.276, 481.349 570.667, 478.382 573.747, 475.343 575.741, 473.678 577.603, 472.302 580.225, 470.132 582.165, 468.850 584.442, 467.553 589.016, 465.159 593.705, 462.446 598.398, 460.134 603.346, 457.781 608.800, 454.944 615.718, 451.823 622.026, 449.310 631.822, 447.299 634.642, 446.721 644.634, 446.315 648.441, 446.161 658.438, 446.384 659.874, 446.416 669.723, 448.149 673.562, 448.824 681.658, 451.541 689.691, 454.937 697.562, 458.969 705.172, 463.588 712.424, 468.734 719.227, 474.343 725.497, 480.345 731.153, 486.664 736.125, 493.220 740.350, 499.931 743.776, 506.713 746.359, 513.481 748.067, 520.149 748.877, 526.633 750.512, 536.498 750.930, 539.021 750.930, 549.021 750.930, 559.021 750.930, 569.021 750.930, 579.021 750.930, 589.021 750.930, 599.021 750.930, 609.021 750.930, 619.021 750.930, 629.021 750.930, 639.021 750.930, 649.021 750.930, 659.021 750.930, 669.021 750.930, 679.021 750.930, 689.021 750.930, 699.021 750.930, 709.021 750.930, 719.021 750.930, 729.021 750.930, 740.563 " />
            <path fill="none" stroke-width="3.0" stroke-linecap="butt" stroke-opacity="1.0" stroke="rgb(0, 0, 0)" stroke-linejoin="round" d=" M 659.874, 740.563 660.005, 732.339 660.164, 722.341 660.323, 712.342 660.482, 702.343 660.640, 692.344 660.799, 682.346 660.958, 672.347 661.117, 662.348 661.276, 652.349 661.435, 642.351 661.594, 632.352 661.753, 622.353 661.912, 612.354 662.071, 602.356 662.230, 592.357 662.388, 582.358 662.547, 572.359 662.580, 570.293 662.299, 565.276 661.457, 560.323 660.066, 555.495 658.143, 550.854 655.713, 546.456 652.806, 542.359 649.458, 538.613 645.712, 535.265 641.614, 532.358 637.217, 529.927 632.575, 528.005 627.748, 526.614 622.794, 525.772 617.778, 525.491 607.778, 525.491 606.453, 525.491 601.437, 525.772 596.484, 526.614 594.168, 527.163 589.538, 528.497 585.087, 530.340 580.870, 532.671 576.940, 535.459 573.348, 538.670 570.137, 542.262 567.349, 546.192 565.018, 550.409 563.175, 554.860 561.841, 559.490 561.034, 564.240 560.764, 569.050 560.605, 579.049 560.446, 589.048 560.287, 599.047 560.128, 609.045 559.969, 619.044 559.810, 629.043 559.651, 639.042 559.492, 649.040 559.333, 659.039 559.174, 669.038 559.016, 679.037 558.857, 689.035 558.698, 699.034 558.539, 709.033 558.380, 719.031 558.221, 729.030 558.168, 732.339 548.168, 732.339 538.168, 732.339 528.168, 732.339 518.168, 732.339 508.168, 732.339 498.168, 732.339 488.168, 732.339 478.168, 732.339 476.319, 732.339 476.319, 722.339 476.319, 712.339 476.319, 702.339 476.319, 692.339 476.319, 682.339 476.319, 672.339 476.319, 662.339 476.319, 652.339 476.319, 642.339 476.319, 632.339 476.319, 622.339 476.319, 612.339 476.319, 602.339 476.319, 592.339 476.319, 582.339 476.319, 572.339 476.319, 562.339 476.319, 552.339 476.319, 542.339 476.319, 539.061 476.319, 529.061 476.319, 525.395 476.319, 515.395 476.319, 505.395 476.319, 495.395 476.319, 485.395 476.319, 475.395 476.319, 465.395 476.319, 459.017 486.319, 459.017 496.319, 459.017 506.319, 459.017 516.319, 459.017 526.319, 459.017 536.319, 459.017 546.319, 459.017 556.319, 459.017 558.168, 459.017 558.168, 469.017 558.168, 479.017 558.168, 489.017 558.168, 495.215 562.417, 490.019 564.961, 486.725 567.116, 483.754 569.409, 480.909 572.364, 477.995 574.275, 476.398 576.061, 475.077 578.576, 472.997 580.436, 471.767 582.619, 470.523 587.007, 468.228 591.503, 465.626 596.004, 463.409 600.749, 461.152 605.979, 458.432 612.613, 455.438 618.662, 453.028 628.458, 451.018 630.761, 450.546 640.753, 450.140 643.994, 450.008 653.992, 450.232 654.959, 450.253 664.808, 451.986 668.086, 452.562 675.849, 455.168 683.554, 458.425 691.102, 462.292 698.399, 466.721 705.354, 471.656 711.878, 477.035 717.890, 482.791 723.315, 488.851 728.083, 495.138 732.135, 501.574 735.421, 508.078 737.898, 514.568 739.535, 520.963 740.313, 527.181 741.947, 537.047 742.281, 539.061 742.281, 549.061 742.281, 559.061 742.281, 569.061 742.281, 579.061 742.281, 589.061 742.281, 599.061 742.281, 609.061 742.281, 619.061 742.281, 629.061 742.281, 639.061 742.281, 649.061 742.281, 659.061 742.281, 669.061 742.281, 679.061 742.281, 689.061 742.281, 699.061 742.281, 709.061 742.281, 719.061 742.281, 729.061 742.281, 732.339 732.281, 732.339 722.281, 732.339 712.281, 732.339 702.281, 732.339 692.281, 732.339 682.281, 732.339 672.281, 732.339 662.281, 732.339 660.005, 732.339 " />
            <path fill="none" stroke-width="3.0" stroke-linecap="butt" stroke-opacity="1.0" stroke="rgb(0, 0, 0)" stroke-linejoin="round" d=" M 473.596, 455.554 473.596, 465.554 473.596, 475.554 473.596, 485.554 473.596, 495.554 473.596, 505.554 473.596, 515.554 473.596, 524.771 473.596, 534.771 473.596, 539.021 473.596, 549.021 473.596, 559.021 473.596, 569.021 473.596, 579.021 473.596, 589.021 473.596, 599.021 473.596, 609.021 473.596, 619.021 473.596, 629.021 473.596, 639.021 473.596, 649.021 473.596, 659.021 473.596, 669.021 473.596, 679.021 473.596, 689.021 473.596, 699.021 473.596, 709.021 473.596, 719.021 473.596, 729.021 473.596, 740.563 " />
            <path fill="none" stroke-width="3.0" stroke-linecap="butt" stroke-opacity="1.0" stroke="rgb(0, 0, 0)" stroke-linejoin="round" d=" M 558.945, 740.563 559.104, 730.564 559.263, 720.566 559.422, 710.567 559.581, 700.568 559.740, 690.569 559.899, 680.571 560.058, 670.572 560.216, 660.573 560.375, 650.574 560.534, 640.576 560.693, 630.577 560.852, 620.578 561.011, 610.579 561.170, 600.581 561.329, 590.582 561.488, 580.583 561.651, 570.293 561.933, 565.276 562.775, 560.323 564.165, 555.495 566.088, 550.854 568.518, 546.456 571.426, 542.359 574.773, 538.613 578.520, 535.265 582.617, 532.358 587.014, 529.927 591.656, 528.005 596.484, 526.614 " />
            <path fill="none" stroke-width="3.0" stroke-linecap="butt" stroke-opacity="1.0" stroke="rgb(0, 0, 0)" stroke-linejoin="round" d=" M 420.761, 455.554 420.761, 459.017 420.761, 469.017 420.761, 479.017 420.761, 489.017 420.761, 499.017 420.761, 509.017 420.761, 519.017 420.761, 524.771 420.761, 534.771 420.761, 539.021 420.761, 549.021 420.761, 559.021 420.761, 569.021 420.761, 579.021 420.761, 589.021 420.761, 599.021 420.761, 609.021 420.761, 619.021 420.761, 629.021 420.761, 639.021 420.761, 649.021 420.761, 659.021 420.761, 669.021 420.761, 679.021 420.761, 689.021 420.761, 699.021 420.761, 709.021 420.761, 719.021 420.761, 729.021 420.761, 732.339 420.761, 740.563 " />
            <path fill="none" stroke-width="3.0" stroke-linecap="butt" stroke-opacity="1.0" stroke="rgb(0, 0, 0)" stroke-linejoin="round" d=" M 419.594, 338.534 422.193, 343.237 422.455, 343.869 424.249, 348.201 425.737, 353.365 426.637, 358.662 426.938, 364.027 426.938, 366.180 426.637, 371.544 425.737, 376.842 424.249, 382.005 422.193, 386.970 419.594, 391.672 416.484, 396.055 412.904, 400.061 408.897, 403.642 404.515, 406.751 399.812, 409.351 394.848, 411.407 389.684, 412.894 384.387, 413.794 379.022, 414.096 369.518, 414.096 364.153, 413.794 358.856, 412.894 353.693, 411.407 348.728, 409.351 346.793, 408.281 344.025, 406.751 " />
            <path fill="none" stroke-width="3.0" stroke-linecap="butt" stroke-opacity="1.0" stroke="rgb(0, 0, 0)" stroke-linejoin="round" d=" M 346.793, 408.281 344.016, 405.799 340.582, 401.957 337.600, 397.754 335.108, 393.244 333.136, 388.484 331.709, 383.532 330.846, 378.452 330.557, 373.307 330.557, 371.242 330.846, 366.097 331.709, 361.017 333.136, 356.066 335.108, 351.305 337.600, 346.795 340.582, 342.592 344.016, 338.750 347.858, 335.316 352.061, 332.334 356.571, 329.842 361.332, 327.870 366.283, 326.443 371.364, 325.580 376.509, 325.291 385.623, 325.291 390.768, 325.580 395.848, 326.443 400.799, 327.870 405.560, 329.842 410.070, 332.334 414.273, 335.316 418.115, 338.750 421.549, 342.592 422.455, 343.869 " />
            <path fill="none" stroke-width="3.0" stroke-linecap="butt" stroke-opacity="1.0" stroke="rgb(0, 0, 0)" stroke-linejoin="round" d=" M 420.761, 732.339 410.761, 732.339 400.761, 732.339 390.761, 732.339 380.761, 732.339 370.761, 732.339 360.761, 732.339 350.761, 732.339 341.202, 732.339 341.202, 722.339 341.202, 712.339 341.202, 702.339 341.202, 692.339 341.202, 682.339 341.202, 672.339 341.202, 662.339 341.202, 652.339 341.202, 642.339 341.202, 632.339 341.202, 622.339 341.202, 612.339 341.202, 602.339 341.202, 592.339 341.202, 582.339 341.202, 572.339 341.202, 562.339 341.202, 552.339 341.202, 542.339 341.202, 539.061 341.202, 529.061 341.202, 525.395 341.202, 515.395 341.202, 505.395 341.202, 495.395 341.202, 485.395 341.202, 475.395 341.202, 465.395 341.202, 459.017 351.202, 459.017 361.202, 459.017 371.202, 459.017 381.202, 459.017 391.202, 459.017 401.202, 459.017 411.202, 459.017 420.761, 459.017 " />
            <path fill="none" stroke-width="3.0" stroke-linecap="butt" stroke-opacity="1.0" stroke="rgb(0, 0, 0)" stroke-linejoin="round" d=" M 341.202, 459.017 332.702, 455.554 " />
            <path fill="none" stroke-width="3.0" stroke-linecap="butt" stroke-opacity="1.0" stroke="rgb(0, 0, 0)" stroke-linejoin="round" d=" M 420.761, 455.554 410.761, 455.554 400.761, 455.554 390.761, 455.554 380.761, 455.554 370.761, 455.554 360.761, 455.554 350.761, 455.554 340.761, 455.554 332.702, 455.554 332.702, 465.554 332.702, 475.554 332.702, 485.554 332.702, 495.554 332.702, 505.554 332.702, 515.554 332.702, 524.771 332.702, 534.771 332.702, 539.021 332.702, 549.021 332.702, 559.021 332.702, 569.021 332.702, 579.021 332.702, 589.021 332.702, 599.021 332.702, 609.021 332.702, 619.021 332.702, 629.021 332.702, 639.021 332.702, 649.021 332.702, 659.021 332.702, 669.021 332.702, 679.021 332.702, 689.021 332.702, 699.021 332.702, 709.021 332.702, 719.021 332.702, 729.021 332.702, 740.563 " />
            <path fill="none" stroke-width="3.0" stroke-linecap="butt" stroke-opacity="1.0" stroke="rgb(0, 0, 0)" stroke-linejoin="round" d=" M 476.319, 459.017 473.596, 455.554 483.596, 455.554 493.596, 455.554 503.596, 455.554 513.596, 455.554 523.596, 455.554 533.596, 455.554 543.596, 455.554 553.596, 455.554 558.945, 455.554 " />
            <path fill="none" stroke-width="3.0" stroke-linecap="butt" stroke-opacity="1.0" stroke="rgb(0, 0, 0)" stroke-linejoin="round" d=" M 344.025, 406.751 339.643, 403.642 335.636, 400.061 332.056, 396.055 328.946, 391.672 326.347, 386.970 324.291, 382.005 322.803, 376.842 321.903, 371.544 321.602, 366.180 321.602, 364.027 321.903, 358.662 322.803, 353.365 324.291, 348.201 326.347, 343.237 328.946, 338.534 332.056, 334.152 335.636, 330.145 339.643, 326.564 344.025, 323.455 348.728, 320.856 353.693, 318.800 358.856, 317.312 364.153, 316.412 369.518, 316.111 379.022, 316.111 384.387, 316.412 389.684, 317.312 394.848, 318.800 399.812, 320.856 404.515, 323.455 408.897, 326.564 412.904, 330.145 416.484, 334.152 419.594, 338.534 " />
            <path fill="none" stroke-width="3.0" stroke-linecap="butt" stroke-opacity="1.0" stroke="rgb(0, 0, 0)" stroke-linejoin="round" d=" M 558.168, 459.017 558.945, 455.554 558.945, 465.554 558.945, 475.554 558.945, 485.554 558.945, 493.300 558.168, 495.215 " />
            <path fill="none" stroke-width="3.0" stroke-linecap="butt" stroke-opacity="1.0" stroke="rgb(0, 0, 0)" stroke-linejoin="round" d=" M 476.319, 732.339 473.596, 740.563 483.596, 740.563 493.596, 740.563 503.596, 740.563 513.596, 740.563 523.596, 740.563 533.596, 740.563 543.596, 740.563 553.596, 740.563 558.945, 740.563 558.168, 732.339 " />
            <path fill="none" stroke-width="3.0" stroke-linecap="butt" stroke-opacity="1.0" stroke="rgb(0, 0, 0)" stroke-linejoin="round" d=" M 420.761, 740.563 410.761, 740.563 400.761, 740.563 390.761, 740.563 380.761, 740.563 370.761, 740.563 360.761, 740.563 350.761, 740.563 340.761, 740.563 332.702, 740.563 339.889, 733.610 341.202, 732.339 " />
            <path fill="none" stroke-width="3.0" stroke-linecap="butt" stroke-opacity="1.0" stroke="rgb(0, 0, 0)" stroke-linejoin="round" d=" M 742.281, 732.339 749.528, 739.230 750.930, 740.563 740.930, 740.563 730.930, 740.563 720.930, 740.563 710.930, 740.563 700.930, 740.563 690.930, 740.563 680.930, 740.563 670.930, 740.563 660.930, 740.563 659.874, 740.563 " />
        </g>
    </g>
</svg>
